Coordinates
version=1
nRows=15
nColumns=24
inDegrees=yes

Units are S.I. units (second, meters, Newtons, ...)
Angles are in degrees.

endheader
time	pelvis_tilt	pelvis_list	pelvis_rotation	pelvis_tx	pelvis_ty	pelvis_tz	hip_flexion_r	hip_adduction_r	hip_rotation_r	knee_angle_r	ankle_angle_r	subtalar_angle_r	mtp_angle_r	hip_flexion_l	hip_adduction_l	hip_rotation_l	knee_angle_l	ankle_angle_l	subtalar_angle_l	mtp_angle_l	lumbar_extension	lumbar_bending	lumbar_rotation
      1.88333333333333330000	      4.50183456269129060000	      1.83144788936078220000	      1.85817587424209220000	      0.58361083103931488000	      1.00339065902236400000	     -0.00239795813700252000	     20.67395906490462600000	     -3.13196398941900390000	     -3.76678835632209670000	     -7.17891017576743100000	     -0.02833335057622096400	     -0.00000192066764894106	      0.00000000000000000000	    -22.56713321166123300000	      3.56003423932086750000	      5.29611445887607250000	     -7.70099508126936080000	     14.17090304847247100000	      0.00000208299048213661	      0.00000000000000000000	    -15.21148806044417200000	     -1.72892979101753940000	     -8.84649430787973760000
      1.89999999999999990000	      4.28443552970240220000	      1.65091745213641090000	      2.15142523270975250000	      0.58691295437260693000	      1.00289988907982770000	     -0.00038629351814782511	     21.34167878935912200000	     -2.85555869407666220000	     -3.90195732786142720000	    -10.26453593017826200000	     -1.09819707679769120000	     -0.00000234755243674197	      0.00000000000000000000	    -22.49175654226576200000	      3.11199275324226040000	      5.62790009446488520000	     -9.97815027407597020000	     13.92181850927156000000	      0.00000253132007043110	      0.00000000000000000000	    -14.65631290922504700000	     -1.19397602766012660000	     -8.85380656380948490000
      1.91666666666666670000	      4.41671624601618440000	      1.49119798139866110000	      2.48833066828368700000	      0.59027079310876196000	      1.00362586185252560000	      0.00149765252242318490	     21.66038464292602900000	     -2.67117657203833090000	     -4.05774146511536400000	    -13.58603326871755500000	     -1.74079724953397030000	     -0.00000274152483874024	      0.00000000000000000000	    -22.42305221449576200000	      2.69083328382395190000	      6.03145510820772210000	    -12.86021842866283300000	     13.33509515934956200000	      0.00000311656984399018	      0.00000000000000000000	    -14.54467892236537800000	     -0.57909031584251447000	     -9.08416269081140370000
      1.93333333333333330000	      4.52629967498307370000	      1.36700389856705410000	      2.63652238166239660000	      0.59459075875983547000	      1.00483188280350170000	      0.00338981734741699600	     21.83308830781966800000	     -2.49551675070393570000	     -3.90143991138451750000	    -16.77454313909318600000	     -1.87659911114994650000	     -0.00000315585571602267	      0.00000000000000000000	    -21.91607764070791100000	      2.44026599437403660000	      6.22884750663101450000	    -16.52317643523231500000	     12.35329604432280700000	      0.00000395287639954724	      0.00000000000000000000	    -14.24199628579035500000	     -0.08095970459657526900	     -8.88842393532789290000
      1.95000000000000000000	      4.88088674217361620000	      1.13132931455764220000	      3.00763027113650550000	      0.59850173814955698000	      1.00679385470531900000	      0.00519987875510305710	     21.43498999923792400000	     -2.25739447998101910000	     -3.94483988409408640000	    -19.44598278947556800000	     -1.74533262581329570000	     -0.00000345150706124871	      0.00000000000000000000	    -20.90072084752569700000	      2.03625892531977740000	      6.44892984190265040000	    -21.44344529008133200000	     11.02001412255381800000	      0.00000506540498110987	      0.00000000000000000000	    -14.32606288905986800000	      0.59642933433060508000	     -9.05680900488626510000
      1.96666666666666660000	      4.97227913325411650000	      1.26702710410951980000	      3.33695165342063890000	      0.60120776973975243000	      1.00839078137225060000	      0.00714687993400714860	     21.14997459807730000000	     -2.38625667342864740000	     -3.92387680318815240000	    -21.74995052613039400000	     -1.32490228623349630000	     -0.00000342100426390308	      0.00000000000000000000	    -18.72795123955173900000	      2.07171252710450070000	      6.42770385329210910000	    -27.66038014173591400000	      8.93776096076224390000	      0.00000649491135442296	      0.00000000000000000000	    -14.23232128782102600000	      0.80487171502556221000	     -9.10594547357363380000
      1.98333333333333340000	      5.08566101729525060000	      1.04767233662392440000	      3.53320764570915500000	      0.60385693179054478000	      1.01002378272587510000	      0.00949572350077004800	     20.51513239293411300000	     -2.07542363542900210000	     -4.04672220908148360000	    -23.41181426313378500000	     -0.66091815782273522000	     -0.00000323208219716940	      0.00000000000000000000	    -16.01211530978825000000	      1.69025293545035990000	      5.71293804904907710000	    -34.47937391100176500000	      5.81093403447863820000	      0.00000806430842258210	      0.00000000000000000000	    -14.21768601791956700000	      1.27661469762299990000	     -9.05907991399030620000
      2.00000000000000000000	      5.09925487724759560000	      0.83566310617816986000	      3.54648174897741300000	      0.60568915640119581000	      1.01145167016578340000	      0.01206437388378176100	     19.88332629598364700000	     -1.68348010339664360000	     -4.10662825196056320000	    -24.80502267617548600000	      0.36359361381681249000	     -0.00000298927015145557	      0.00000000000000000000	    -12.77621974049030300000	      1.19535610953401640000	      4.47678419742486700000	    -41.37427645624829600000	      1.59058248692730730000	      0.00000897738520755133	      0.00000000000000000000	    -14.03228367440683000000	      1.66029751831044560000	     -8.74066595317907160000
      2.01666666666666660000	      4.98113098794757030000	      0.25149141352912757000	      3.38056356447760200000	      0.60645523138540525000	      1.01270458309983890000	      0.01526990316783325000	     19.12660580332341500000	     -0.80668494812447389000	     -4.20982175453164320000	    -25.48001121282280200000	      1.40789878144910570000	     -0.00000280490735890319	      0.00000000000000000000	     -9.11839517176566080000	      0.07530591295306751600	      2.78449059435403170000	    -48.01871710645124800000	     -3.02284820397726680000	      0.00000922911667950050	      0.00000000000000000000	    -13.84918307046941700000	      2.39125112271592370000	     -7.96223982597530980000
      2.03333333333333320000	      4.92773098096326740000	     -0.45697552981787726000	      3.52728587287869470000	      0.60749896705535200000	      1.01466608395284270000	      0.01851692844168808700	     17.93766582688968100000	      0.17921060453946719000	     -4.62691346297344100000	    -25.53650747769829400000	      2.53215638413624470000	     -0.00000263317283892930	      0.00000000000000000000	     -5.64561933135759290000	     -1.48128926351666700000	      1.41592652332499250000	    -53.75999932776115700000	     -7.11415957404805790000	      0.00000837383983554113	      0.00000000000000000000	    -13.56757550417603600000	      3.10852299758626140000	     -7.52992497425637900000
      2.04999999999999980000	      4.97793728977214120000	     -1.09718431065677220000	      3.33939680652262410000	      0.60746078022583949000	      1.01717075361057430000	      0.02198326622232593700	     16.50318008923711200000	      1.20666109004627730000	     -4.72075944131577340000	    -25.12771618806268800000	      3.48661734112152160000	     -0.00000255038776899769	      0.00000000000000000000	     -2.43451811766545580000	     -2.92764032480181860000	      0.10665480172979160000	    -58.69174038481148900000	     -9.49748789347966850000	      0.00000660534253163900	      0.00000000000000000000	    -13.61909321009010100000	      3.69934001924847240000	     -6.66543836539744380000
      2.06666666666666640000	      5.23643859517767400000	     -1.58892129159401250000	      3.28521180024552930000	      0.60731851121916169000	      1.02034167949152540000	      0.02532792982650438500	     14.75818527682795400000	      2.08108569752051720000	     -4.76005604136480540000	    -24.56982222588988000000	      4.41649744654592970000	     -0.00000257065737302248	      0.00000000000000000000	      0.45125710418656012000	     -4.14458392395969800000	     -0.66196610067695638000	    -62.94058808665997900000	     -9.76528216079876190000	      0.00000477868968270203	      0.00000000000000000000	    -13.84202511124103200000	      4.00135863816981360000	     -6.02514914102167860000
      2.08333333333333350000	      5.29517099957258350000	     -1.76676429637805390000	      3.00284543827116130000	      0.60667646169399703000	      1.02375054543332090000	      0.02813348521142084600	     13.06533799592318500000	      2.59905240020736580000	     -4.50953158173917500000	    -23.63719757115105200000	      5.11272289244596310000	     -0.00000231939123552763	      0.00000000000000000000	      3.32055041567817670000	     -4.79890345590599670000	     -1.35683303815599010000	    -66.27748494247225600000	     -8.31214182172196740000	      0.00000290469157857766	      0.00000000000000000000	    -13.99347207956345700000	      4.01913483084918880000	     -5.06205896858057260000
      2.10000000000000010000	      5.40535535263607600000	     -1.86490569263419540000	      2.76594569698057400000	      0.60644208353682838000	      1.02750024635415630000	      0.03088484271218076100	     11.13113145537252000000	      3.01867116247796700000	     -4.26357565867341300000	    -22.39336572198811800000	      5.63300503788122330000	     -0.00000196568225242807	      0.00000000000000000000	      5.93119882682456550000	     -5.16100781023157840000	     -1.67673427726335220000	    -68.67320783356480300000	     -6.07423332723799710000	      0.00000144803033473741	      0.00000000000000000000	    -14.10251489906066000000	      3.86187542885912420000	     -4.32175227129494390000
      2.11666666666666670000	      5.69041754311416610000	     -1.82856395101675790000	      2.27016743878833170000	      0.60562329364673595000	      1.03156303679625380000	      0.03391940099187124000	      8.82820767458148660000	      3.33208821971670990000	     -3.71485055184081950000	    -20.67548229936790700000	      5.86579464342959160000	     -0.00000181099949623600	      0.00000000000000000000	      8.15650735563926330000	     -5.34863651460566030000	     -2.21298577571872460000	    -70.08345579082659100000	     -4.01816727581824030000	      0.00000069532544819588	      0.00000000000000000000	    -14.34135509810903700000	      3.51912005229932220000	     -3.22698861679829770000
